<svg version="1.1" xmlns="http://www.w3.org/2000/svg" xmlns:xlink="http://www.w3.org/1999/xlink" width="384px" height="512px" viewBox="0,0,192,256"><g fill="#7a7c7d" fill-rule="nonzero" stroke="none" stroke-width="1" stroke-linecap="butt" stroke-linejoin="miter" stroke-miterlimit="10" stroke-dasharray="" stroke-dashoffset="0" font-family="none" font-weight="none" font-size="none" text-anchor="none" style="mix-blend-mode: normal"><g transform="scale(0.5,0.5)"><path d="M320,464c8.8,0 16,-7.2 16,-16v-288h-80c-17.7,0 -32,-14.3 -32,-32v-80h-160c-8.8,0 -16,7.2 -16,16v384c0,8.8 7.2,16 16,16zM0,64c0,-35.3 28.7,-64 64,-64h165.5c17,0 33.3,6.7 45.3,18.7l90.5,90.5c12,12 18.7,28.3 18.7,45.3v293.5c0,35.3 -28.7,64 -64,64h-256c-35.3,0 -64,-28.7 -64,-64z"></path></g></g></svg>